<?xml version="1.0" encoding="UTF-8"?>
<svg width="39px" height="37px" viewBox="0 0 39 37" version="1.1" xmlns="http://www.w3.org/2000/svg" xmlns:xlink="http://www.w3.org/1999/xlink">
    <!-- Generator: Sketch 64 (93537) - https://sketch.com -->
    <title>Group</title>
    <desc>Created with Sketch.</desc>
    <g id="Page-1" stroke="none" stroke-width="1" fill="none" fill-rule="evenodd">
        <g id="salads" transform="translate(-18.000000, 1.000000)">
            <polygon id="Path" points="0 0 38 0 38 36 0 36"></polygon>
            <g id="Group" transform="translate(19.000000, 0.000000)">
                <ellipse id="Oval" fill-opacity="0.15" fill="#844C22" fill-rule="nonzero" cx="19" cy="33.8181818" rx="19" ry="2.18181818"></ellipse>
                <path d="M1.9,12 C1.9,21.0370909 7.8546,28.3636364 15.2,28.3636364 C22.5454,28.3636364 28.5,21.0370909 28.5,12 L1.9,12 Z" id="Path" fill="#FFFFFF" fill-rule="nonzero" opacity="0.729"></path>
                <path d="M2.85,23.0967273 C6.175,22.5370909 9.72135,23.2276364 13.48715,25.1672727 C19.1368,28.0767273 21.755,26.4501818 26.37485,26.52 C29.4538,26.568 32.14895,25.704 34.45935,23.9290909 C32.93365,26.9661818 31.6369,29.1545455 30.5691,30.4941818 C29.50225,31.8338182 27.90435,33.2781818 25.77445,34.8272727 L11.19005,35.2036364 C8.9813,33.6676364 7.15635,31.8523636 5.71425,29.76 C4.2731,27.6676364 3.31835,25.4465455 2.85,23.0967273 Z" id="Path" fill="#F6E7B5" fill-rule="nonzero"></path>
                <path d="M3.8532,10.9090909 C3.19105,10.7563636 2.67045,9.90763636 2.2914,8.364 C1.9133,6.81818182 1.8088,5.12290909 1.9798,3.27272727 C3.7886,3.75054545 5.1414,4.59927273 6.03915,5.81781818 C6.935,7.03745455 7.45655,8.73381818 7.6,10.9090909 L3.8532,10.9090909 Z" id="Path" stroke="#844C22" fill="#D8E7C1" fill-rule="nonzero" stroke-linecap="round" stroke-linejoin="round"></path>
                <path d="M0,10.9090909 L37.05,10.9090909 C36.42965,18.5825455 35.188,23.8887273 33.326,26.8276364 C31.464,29.7665455 29.1061,32.46 26.25135,34.9090909 L11.54345,34.9090909 C7.69595,31.9701818 5.1509,29.0312727 3.9102,26.0923636 C2.394,22.5054545 1.09155,17.4447273 0,10.9090909 Z" id="Path" stroke="#844C22" stroke-linecap="round" stroke-linejoin="round"></path>
                <g transform="translate(2.850000, 0.000000)">
                    <path d="M10.29515,29.1185455 L9.1846,30.4210909 C7.9477,30.9403636 6.7659,30.9403636 5.63825,30.4210909 C3.94725,29.6410909 3.94725,28.08 3.94725,26.52 C3.94725,25.4803636 3.38295,24.7003636 2.2553,24.18 C0.7505,24.18 0,23.1403636 0,21.06 C0,18.9807273 0.9405,17.4207273 2.81865,16.38 C2.71225,15.0807273 2.85285,14.3509091 3.3193,14.196 L4.8222,13.6996364 C3.3193,10.7192727 3.1312,8.73163636 4.25885,7.73781818 C5.38555,6.74509091 7.70165,6.49636364 11.2081,6.99272727 C11.0827,6.33054545 11.39525,5.75127273 12.1467,5.25381818 C12.8972,4.75745455 13.8377,4.59163636 14.9644,4.75745455 C14.9644,1.94290909 15.6522,0.369818182 17.0297,0.0381818182 C18.4072,-0.293454545 19.7847,1.52836364 21.1622,5.50363636 C21.9127,5.66727273 22.60145,5.83418182 23.2275,5.99890909 C23.8545,6.16472727 24.3542,6.828 24.7304,7.98654545 C26.23235,7.49018182 27.35905,7.49018182 28.1105,7.98654545 C28.861,8.48290909 29.2372,9.55963636 29.2372,11.2156364 L29.05005,14.6934545 C29.92595,15.024 30.4893,15.5203636 30.7401,16.1836364 C30.98995,16.8458182 30.7591,17.9509091 30.0447,19.5 L29.9649,19.5807273 C30.2366,19.5272727 30.4551,19.5 30.61945,19.5 C31.5723,19.5 32.3,20.28 32.3,22.62 C32.3,24.18 31.7395,25.116 30.6185,25.4269091 C29.868,25.4269091 29.1175,25.5927273 28.3651,25.9232727 C27.2384,26.4207273 27.97275,27.9196364 26.2998,28.9036364 C24.6259,29.8876364 23.49065,28.9036364 22.5511,28.9036364 C21.92505,28.9036364 21.42155,29.8145455 21.0406,31.6363636 L14.09515,31.6363636 C13.4672,30.2290909 12.7148,29.3181818 11.83795,28.9036364 C11.32685,28.6625455 10.81195,28.7345455 10.29515,29.1185455 Z" id="b" stroke="#844C22" fill="#FBC889" fill-rule="nonzero" stroke-linecap="round" stroke-linejoin="round"></path>
                    <path d="M5.6145,12.8432727 C4.2009,10.0690909 4.1705,9.22036364 5.22975,8.29527273 C6.2909,7.37018182 8.79225,7.83272727 12.0916,8.29527273 C11.9738,7.67890909 12.0821,6.44509091 12.78985,5.98254545 C13.49665,5.52 14.6965,5.82872727 15.75765,5.98254545 C15.75765,3.36218182 15.93055,1.41163636 17.22635,1.10181818 C18.0443,0.907636364 19.07315,2.56363636 20.31195,6.06872727 C20.4439675,6.44171171 20.7441546,6.70087504 21.09285,6.74290909 C22.05235,6.85854545 22.6974,6.96109091 23.028,7.04618182 C23.33105,7.12581818 23.6645,7.59927273 24.03025,8.46654545 C24.2340288,8.94954075 24.7134701,9.1905819 25.16075,9.03490909 C26.315,8.63345455 27.08545,8.56036364 27.474,8.81345455 C28.1808,9.276 28.4677,9.99163636 28.4677,11.5330909 L28.17035,14.5003636 C28.1204806,14.9970632 28.3710411,15.4691121 28.77835,15.6458182 C29.40535,15.9174545 29.77585,16.2076364 29.8946,16.5163636 C30.0523,16.9276364 29.94495,17.5101818 29.57445,18.264" id="Path" stroke="#D8E7C1" stroke-linecap="round" stroke-linejoin="round"></path>
                    <path d="M1.0412,19.5065455 C0.9386,21.2192727 3.078,22.2752727 7.46035,22.6756364 C13.12615,23.1938182 11.48265,29.3181818 17.48,29.3181818 C24.21075,29.3181818 21.3465,22.2654545 22.534,22.6745455 C31.141,25.6483636 29.61815,15.8050909 29.61815,14.3989091 C29.61815,13.4618182 27.25645,13.4618182 22.534,14.3989091 C22.51785,9.57054545 22.24615,6.63490909 21.71985,5.58981818 C20.93135,4.02327273 18.45565,2.52327273 17.48,4.36363636 C16.1842,6.81054545 16.9898,10.8010909 15.77,11.0345455 C11.7249,11.808 16.76655,6.16909091 14.52835,5.59090909 C8.73525,4.08872727 13.72655,12.5258182 12.29205,13.2665455 C10.8585,14.0083636 8.98225,6.31090909 7.46035,7.75418182 C5.9375,9.19636364 5.4606,8.88 4.73765,12.5487273 C4.256,14.9934545 3.02385,17.3127273 1.04215,19.5065455 L1.0412,19.5065455 Z" id="Path" fill="#ADCC7D" fill-rule="nonzero"></path>
                </g>
                <path d="M22.05615,15.2727273 C21.64385,13.0909091 21.85,11.4545455 22.6765,10.3636364 C23.503,9.27272727 24.74085,8.72727273 26.39385,8.72727273 C26.80615,10.9778182 26.6,12.6141818 25.7735,13.6363636 C24.947,14.6596364 23.70915,15.2050909 22.05615,15.2727273 L22.05615,15.2727273 Z" id="Path" fill="#BB171C" fill-rule="nonzero"></path>
                <path d="M0,10.9090909 L37.05,10.9090909 C36.42965,18.5825455 35.188,23.8887273 33.326,26.8276364 C31.464,29.7665455 29.1061,32.46 26.25135,34.9090909 L11.54345,34.9090909 C7.69595,31.9701818 5.1509,29.0312727 3.9102,26.0923636 C2.394,22.5054545 1.09155,17.4447273 0,10.9090909 Z" id="Path" stroke="#844C22" stroke-linecap="round" stroke-linejoin="round"></path>
                <g transform="translate(8.550000, 15.272727)">
                    <ellipse id="Oval" stroke="#844C22" fill="#FFB46B" fill-rule="nonzero" cx="4.75" cy="5.45454545" rx="4.75" ry="5.45454545"></ellipse>
                    <path d="M6.53505,0.439636364 L4.6797,4.86436364 L3.16635,0.337090909 C4.25632438,-0.145319018 5.46886336,-0.10840853 6.53505,0.439636364 L6.53505,0.439636364 Z M9.10005,3.35781818 L5.0635,4.98 L6.7811,0.550909091 C7.84892095,1.0941145 8.68392863,2.10401998 9.101,3.35672727 L9.10005,3.35781818 Z M9.11715,7.50436364 L5.26395,5.37381818 L9.20645,3.636 C9.62654864,4.88764522 9.59440576,6.28003448 9.11715,7.50436364 L9.11715,7.50436364 Z M6.5759,10.4498182 L5.16325,5.81454545 L9.02025,7.78690909 C8.54720862,9.01311497 7.66774927,9.97197546 6.57685,10.4509091 L6.5759,10.4498182 Z M2.96495,10.4694545 L4.8203,6.04472727 L6.33365,10.572 C5.24367562,11.0544099 4.03113664,11.0174994 2.96495,10.4694545 Z M0.39995,7.55127273 L4.4365,5.92909091 L2.7189,10.3581818 C1.65107905,9.81497641 0.81607137,8.80507093 0.399,7.55236364 L0.39995,7.55127273 Z M0.38285,3.40363636 L4.23605,5.53418182 L0.29355,7.272 C-0.126548645,6.02035478 -0.0944057614,4.62796552 0.38285,3.40363636 L0.38285,3.40363636 Z M2.9241,0.458181818 L4.33675,5.09454545 L0.47975,3.12218182 C0.952791379,1.89597594 1.83225073,0.937115449 2.92315,0.458181818 L2.9241,0.458181818 Z" id="Shape" fill="#F6E7B5" fill-rule="nonzero"></path>
                    <ellipse id="Oval" stroke="#844C22" cx="4.75" cy="5.45454545" rx="4.75" ry="5.45454545"></ellipse>
                </g>
                <line x1="0.95" y1="12" x2="36.1" y2="12" id="Path" stroke="#FFFFFF" stroke-linecap="round" stroke-linejoin="round"></line>
                <path d="M18.2229,30.7243636 L17.1,26.1818182 M19.95,22.9090909 L20.95985,30.5454545 L19.95,22.9090909 Z" id="Shape" stroke="#844C22" stroke-linecap="round" stroke-linejoin="round"></path>
                <ellipse id="Oval" stroke="#844C22" fill="#C33136" fill-rule="nonzero" cx="24.7" cy="21.8181818" rx="2.85" ry="3.27272727"></ellipse>
                <path d="M0.95,12 C0.95,20.4349091 6.2662,27.2727273 12.825,27.2727273 C19.3838,27.2727273 24.7,20.4349091 24.7,12 L0.95,12 Z" id="Path" fill="#FFFFFF" fill-rule="nonzero" opacity="0.729"></path>
            </g>
        </g>
    </g>
</svg>